<?xml version="1.0" encoding="utf-8"?>
<!-- Generator: Adobe Illustrator 19.0.0, SVG Export Plug-In . SVG Version: 6.00 Build 0)  -->
<svg version="1.1" id="Layer_1" xmlns="http://www.w3.org/2000/svg" xmlns:xlink="http://www.w3.org/1999/xlink" x="0px" y="0px"
	 viewBox="0 0 1136.5 595.3" style="enable-background:new 0 0 1136.5 595.3;" xml:space="preserve">
<style type="text/css">
	.st0{fill:url(#XMLID_3_);}
	.st1{fill:#38BEE6;}
	.st2{fill:url(#XMLID_4_);}
	.st3{fill:url(#XMLID_5_);}
	.st4{fill:url(#XMLID_6_);}
	.st5{fill:url(#XMLID_7_);}
	.st6{fill:url(#XMLID_8_);}
	.st7{fill:url(#XMLID_9_);}
	.st8{fill:url(#XMLID_10_);}
	.st9{fill:url(#XMLID_11_);}
	.st10{fill:url(#XMLID_12_);}
	.st11{fill:url(#XMLID_13_);}
</style>
<linearGradient id="XMLID_3_" gradientUnits="userSpaceOnUse" x1="286.2703" y1="606.484" x2="832.2703" y2="8.484">
	<stop  offset="0" style="stop-color:#009ECC"/>
	<stop  offset="1" style="stop-color:#7ECDEA"/>
</linearGradient>
<rect id="XMLID_35_" class="st0" width="1136.5" height="595.3"/>
<g id="XMLID_15_">
	<path id="XMLID_26_" class="st1" d="M510.6,367.6c14.7-16,15.8-40.8,0-56.6C526.5,325.6,525.4,352.8,510.6,367.6z"/>
</g>
<g id="XMLID_14_">
	<g id="XMLID_19_">
		<linearGradient id="XMLID_4_" gradientUnits="userSpaceOnUse" x1="84.4745" y1="305.2188" x2="386.1455" y2="350.6969">
			<stop  offset="0" style="stop-color:#009ECC"/>
			<stop  offset="1" style="stop-color:#7ECDEA"/>
		</linearGradient>
		<path id="XMLID_30_" class="st2" d="M282.2,333.6l-1.1,1.1c-3.4,3.4-6.9,6.9-10.3,10.3l-81.3,81.3c-8.2,8.2-21.1,7.7-29.5,0
			c-8.3-7.6-7.7-21.8,0-29.5l70.9-70.9c3.9-3.9,3.9-10.3,0-14.2l-70.9-70.9c-8.2-8.2-7.7-21.1,0-29.5c7.6-8.3,21.8-7.7,29.5,0
			c3.8,3.8,7.6,7.6,11.4,11.4l50,50c10.5,10.5,20.9,20.9,31.4,31.4C290.4,312.3,289.8,325.2,282.2,333.6z"/>
		<linearGradient id="XMLID_5_" gradientUnits="userSpaceOnUse" x1="84.5957" y1="304.4149" x2="386.2667" y2="349.8929">
			<stop  offset="0" style="stop-color:#009ECC"/>
			<stop  offset="1" style="stop-color:#7ECDEA"/>
		</linearGradient>
		<path id="XMLID_27_" class="st3" d="M282.2,333.6c-0.3,0.4-0.7,0.7-1.1,1.1L282.2,333.6z"/>
	</g>
	<g id="XMLID_17_">
		<linearGradient id="XMLID_6_" gradientUnits="userSpaceOnUse" x1="99.5233" y1="205.3948" x2="401.1944" y2="250.8728">
			<stop  offset="0" style="stop-color:#009ECC"/>
			<stop  offset="1" style="stop-color:#7ECDEA"/>
		</linearGradient>
		<path id="XMLID_18_" class="st4" d="M202.3,198.5c10.5,10.5,20.9,20.9,31.4,31.4c16.7,16.7,33.3,33.3,50,50
			c3.8,3.8,7.6,7.6,11.4,11.4c7.7,7.7,21.9,8.3,29.5,0c7.7-8.3,8.2-21.2,0-29.5c-10.5-10.5-20.9-20.9-31.4-31.4
			c-16.7-16.7-33.3-33.3-50-50c-3.8-3.8-7.6-7.6-11.4-11.4c-7.7-7.7-21.9-8.3-29.5,0C194.7,177.3,194.1,190.2,202.3,198.5
			L202.3,198.5z"/>
	</g>
</g>
<g id="XMLID_38_">
	<linearGradient id="XMLID_7_" gradientUnits="userSpaceOnUse" x1="544.1342" y1="330.0723" x2="1113.0663" y2="448.5189">
		<stop  offset="0" style="stop-color:#009ECC"/>
		<stop  offset="1" style="stop-color:#7ECDEA"/>
	</linearGradient>
	<path id="XMLID_39_" class="st5" d="M349.9,329.7l11.2-11c1.7-1.6,4.3-1.6,6,0c4.6,4.5,11.3,7.1,18.5,7.1c5.9,0,11.7-2.1,11.7-6.4
		c0-5.4-10.7-10.1-21-14.7c-13.2-5.7-24.6-14.4-24.6-30.2c0-18.1,17.2-31,37.1-31c14.4,0,25.9,6.1,31.1,14.8c1,1.7,0.6,3.8-0.8,5.2
		l-10.6,10.2c-1.6,1.5-4.1,1.5-5.7,0c-3.8-3.4-9.7-4.9-13.7-4.9c-5.7,0-9.8,2.9-9.8,6.5c0,4.8,7.4,6.4,18.7,11.1
		c16.4,6.9,27.2,16.9,27.2,32.3c0,19.9-18.6,32.3-39.5,32.3c-15.6,0-30-6.3-36.4-16.1C348.2,333.4,348.5,331.1,349.9,329.7z"/>
	<linearGradient id="XMLID_8_" gradientUnits="userSpaceOnUse" x1="547.2064" y1="315.3156" x2="1116.1384" y2="433.7622">
		<stop  offset="0" style="stop-color:#009ECC"/>
		<stop  offset="1" style="stop-color:#7ECDEA"/>
	</linearGradient>
	<path id="XMLID_41_" class="st6" d="M497.1,337.5h-33.5c-1.7,0-3.2,1-3.9,2.6l-3.1,7.1c-0.7,1.6-2.2,2.6-3.9,2.6h-20.9
		c-3.1,0-5.2-3.2-3.9-6.1l44.7-97.4c0.7-1.5,2.2-2.5,3.9-2.5h7.7c1.7,0,3.2,1,3.9,2.5l44.8,97.4c1.3,2.8-0.8,6.1-3.9,6.1h-21
		c-1.7,0-3.3-1-3.9-2.6l-3-7C500.3,338.5,498.8,337.5,497.1,337.5z M488.5,311.2l-4.2-9.8c-1.5-3.4-6.4-3.4-7.8,0l-4.2,9.8
		c-1.2,2.8,0.8,6,3.9,6h8.5C487.6,317.2,489.7,314,488.5,311.2z"/>
	<linearGradient id="XMLID_9_" gradientUnits="userSpaceOnUse" x1="551.3148" y1="295.5819" x2="1120.2468" y2="414.0285">
		<stop  offset="0" style="stop-color:#009ECC"/>
		<stop  offset="1" style="stop-color:#7ECDEA"/>
	</linearGradient>
	<path id="XMLID_44_" class="st7" d="M613.9,327.9v17.6c0,2.4-1.9,4.3-4.3,4.3h-59.3c-2.4,0-4.3-1.9-4.3-4.3v-96.1
		c0-2.4,1.9-4.3,4.3-4.3h19.2c2.4,0,4.3,1.9,4.3,4.3v70c0,2.4,1.9,4.3,4.3,4.3h31.5C612,323.6,613.9,325.5,613.9,327.9z"/>
	<linearGradient id="XMLID_10_" gradientUnits="userSpaceOnUse" x1="555.2217" y1="276.8161" x2="1124.1537" y2="395.2627">
		<stop  offset="0" style="stop-color:#009ECC"/>
		<stop  offset="1" style="stop-color:#7ECDEA"/>
	</linearGradient>
	<path id="XMLID_46_" class="st8" d="M690,337.5h-33.5c-1.7,0-3.2,1-3.9,2.6l-3.1,7.1c-0.7,1.6-2.2,2.6-3.9,2.6h-20.9
		c-3.1,0-5.2-3.2-3.9-6.1l44.7-97.4c0.7-1.5,2.2-2.5,3.9-2.5h7.7c1.7,0,3.2,1,3.9,2.5l44.8,97.4c1.3,2.8-0.8,6.1-3.9,6.1h-21
		c-1.7,0-3.3-1-3.9-2.6l-3-7C693.3,338.5,691.7,337.5,690,337.5z M681.4,311.2l-4.2-9.8c-1.5-3.4-6.4-3.4-7.8,0l-4.2,9.8
		c-1.2,2.8,0.8,6,3.9,6h8.5C680.6,317.2,682.6,314,681.4,311.2z"/>
	<linearGradient id="XMLID_11_" gradientUnits="userSpaceOnUse" x1="560.0922" y1="253.4214" x2="1129.0243" y2="371.868">
		<stop  offset="0" style="stop-color:#009ECC"/>
		<stop  offset="1" style="stop-color:#7ECDEA"/>
	</linearGradient>
	<path id="XMLID_49_" class="st9" d="M793.4,271h-16.5c-2.4,0-4.3,1.9-4.3,4.3v70.2c0,2.4-1.9,4.3-4.3,4.3h-19.3
		c-2.4,0-4.3-1.9-4.3-4.3v-70.2c0-2.4-1.9-4.3-4.3-4.3h-16.6c-2.4,0-4.3-1.9-4.3-4.3v-17.4c0-2.4,1.9-4.3,4.3-4.3h69.5
		c2.4,0,4.3,1.9,4.3,4.3v17.4C797.7,269.1,795.8,271,793.4,271z"/>
	<linearGradient id="XMLID_12_" gradientUnits="userSpaceOnUse" x1="568.2923" y1="214.0344" x2="1137.2244" y2="332.481">
		<stop  offset="0" style="stop-color:#009ECC"/>
		<stop  offset="1" style="stop-color:#7ECDEA"/>
	</linearGradient>
	<path id="XMLID_54_" class="st10" d="M981.3,347.8l-17.4-26.1c-2.3-3.5-7.8-1.9-7.8,2.4v21.4c0,2.4-1.9,4.3-4.3,4.3h-19.2
		c-2.4,0-4.3-1.9-4.3-4.3v-96.1c0-2.4,1.9-4.3,4.3-4.3h19.2c2.4,0,4.3,1.9,4.3,4.3v19.8c0,4.3,5.6,5.9,7.9,2.3l15.1-24.3
		c0.8-1.3,2.2-2,3.6-2h21.8c3.4,0,5.4,3.7,3.6,6.5l-26.5,42.1c-0.9,1.4-0.9,3.3,0.1,4.7l30,44.7c1.9,2.8-0.1,6.7-3.5,6.7h-23.4
		C983.5,349.7,982.1,349,981.3,347.8z"/>
	<linearGradient id="XMLID_13_" gradientUnits="userSpaceOnUse" x1="564.0032" y1="234.6361" x2="1132.9352" y2="353.0827">
		<stop  offset="0" style="stop-color:#009ECC"/>
		<stop  offset="1" style="stop-color:#7ECDEA"/>
	</linearGradient>
	<path id="XMLID_1_" class="st11" d="M861.6,243.5c-29.3,0-53.1,23.8-53.1,53.1c0,29.3,23.8,53.1,53.1,53.1
		c29.3,0,53.1-23.8,53.1-53.1C914.8,267.3,891,243.5,861.6,243.5z M857.3,285.8l5.2-1.2c0.3-0.1,0.6-0.3,0.7-0.6l2.4-4.8
		c0.4-0.7,1.4-0.8,1.9-0.1l2.7,4.6c0.2,0.3,0.4,0.5,0.8,0.5l5.3,0.8c0.8,0.1,1.2,1.1,0.6,1.8l-3.5,4c-0.2,0.2-0.3,0.6-0.2,0.9
		l0.9,5.3c0.1,0.8-0.7,1.5-1.5,1.1l-4.9-2.1c-0.3-0.1-0.6-0.1-0.9,0l-4.7,2.4c-0.7,0.4-1.6-0.2-1.5-1l0.5-5.3c0-0.3-0.1-0.6-0.3-0.9
		l-3.8-3.7C856.1,287,856.4,286,857.3,285.8z M883.8,326.3c-6.6,4.7-14.7,7.2-23.5,6.5c-17.6-1.4-31.9-16.2-33.2-34.4
		c-0.7-9.7,2.1-18.6,7.2-25.6c0.9-1.2,2.8-0.3,2.4,1.2c-1,3.5-1.5,7.2-1.5,11c0,21.8,17,39.4,38,39.4c3.2,0,6.2-0.4,9.2-1.2
		C884.2,322.7,885.3,325.2,883.8,326.3z"/>
</g>
</svg>
